<svg width="17" height="16" viewBox="0 0 17 16" fill="none" xmlns="http://www.w3.org/2000/svg">
<path fill-rule="evenodd" clip-rule="evenodd" d="M3.16661 7.33468H12.2226L10.0259 5.13801C9.76527 4.87735 9.76527 4.45601 10.0259 4.19535C10.2866 3.93468 10.7086 3.93468 10.9686 4.19535L14.3019 7.52868C14.5626 7.78935 14.5626 8.21068 14.3019 8.47135L10.9713 11.8047C10.8413 11.9347 10.6706 12 10.4999 12C10.3293 12 10.1586 11.9347 10.0286 11.8047C9.76794 11.5447 9.76794 11.1227 10.0279 10.862L12.2206 8.66801H3.16661C2.79794 8.66801 2.49994 8.37001 2.49994 8.00135C2.49994 7.63268 2.79794 7.33468 3.16661 7.33468" fill="#202E44"/>
</svg>
