<svg width="25" height="24" viewBox="0 0 25 24" fill="none" xmlns="http://www.w3.org/2000/svg">
<path fill-rule="evenodd" clip-rule="evenodd" d="M11 3C15.1421 3 18.5 6.35786 18.5 10.5C18.5 12.2101 17.9276 13.7866 16.964 15.0483L21.2071 19.2929C21.5976 19.6834 21.5976 20.3166 21.2071 20.7071C20.8166 21.0976 20.1834 21.0976 19.7929 20.7071L15.5483 16.464C14.2866 17.4276 12.7101 18 11 18C6.85786 18 3.5 14.6421 3.5 10.5C3.5 6.35786 6.85786 3 11 3ZM11 5C7.96243 5 5.5 7.46243 5.5 10.5C5.5 13.5376 7.96243 16 11 16C14.0376 16 16.5 13.5376 16.5 10.5C16.5 7.46243 14.0376 5 11 5Z" fill="#202E44"/>
</svg>
