<svg width="72" height="19" viewBox="0 0 72 19" fill="none" xmlns="http://www.w3.org/2000/svg">
<path fill-rule="evenodd" clip-rule="evenodd" d="M17.9164 14.7016C17.9164 14.7016 17.7795 15.3501 18.3783 15.4038C18.6811 15.4134 19.0031 15.4134 19.3414 15.4134C21.5004 15.4134 23.4755 14.6201 23.5198 12.6713C23.5605 10.9441 22.0234 10.4235 20.1711 10.4235H18.8642L17.9164 14.7016ZM27.7118 12.7666C27.7118 15.3513 25.5416 18.7613 18.0356 18.3416C17.156 18.292 16.6154 18.2193 15.822 18.0244C12.9947 17.3287 13.9893 13.9933 13.9893 13.9933L16.866 1.08656C18.4489 0.82869 20.2242 0.672112 22.0477 0.672112C26.0622 0.672112 28.7223 2.10432 28.7223 4.78471C28.7223 7.29439 26.2996 8.6584 24.4657 8.96752C25.919 9.07607 27.7118 10.1975 27.7118 12.7666ZM20.3722 3.66929L19.6465 6.99455C19.6465 6.99455 19.4662 7.70642 20.081 7.70642H20.9275C23.1053 7.70642 24.6137 6.85331 24.6516 5.35049C24.6823 4.11077 23.6147 3.57365 22.0988 3.57365C21.4058 3.57365 20.6782 3.62086 20.3722 3.66929ZM46.0652 18.3882H43.6824L47.4607 1.18236C49.0233 0.817149 50.6681 0.744913 52.5731 0.761055C57.2226 0.779618 59.3541 2.55807 59.3541 5.65815C59.3541 8.49875 57.1177 12.6783 50.6869 12.6783C50.0283 12.6783 49.4618 12.6029 49.0529 12.5754C49.0529 12.5754 48.5291 14.9677 48.2175 16.3773C47.8249 18.1469 46.6748 18.3882 46.0652 18.3882ZM51.2342 3.79455L50.1838 8.59197C50.1838 8.59197 49.8451 9.61175 51.0543 9.61175C51.2035 9.6182 51.3655 9.62264 51.5438 9.62264C54.247 9.60166 55.6353 7.81836 55.6353 5.97212C55.6353 4.15573 54.3946 3.709 52.901 3.709C52.1382 3.709 51.5657 3.74532 51.2342 3.79455ZM34.25 10.7866C34.25 13.5025 35.8094 15.239 38.4847 15.239C39.5862 15.239 40.7897 15.0521 42.413 13.8479L41.7767 16.7406C41.7767 16.7406 41.6 17.7003 40.5456 18.0731C39.6891 18.398 38.7855 18.5457 37.4159 18.5457C33.6009 18.5457 29.8781 16.6458 29.8781 11.0162C29.8781 5.75028 33.214 0.39798 39.6536 0.39798C40.917 0.39798 41.8102 0.577964 42.954 0.951249C44.7176 1.52671 44.9319 2.49282 44.815 3.07191C44.6957 3.66473 44.2796 5.08927 44.2796 5.08927C43.1702 4.08684 41.2377 3.80476 40.1634 3.80476C36.0472 3.80476 34.25 7.98596 34.25 10.7866ZM7.05199 8.53854C5.61263 6.95985 4.09429 6.00545 2.97329 5.46146C2.97329 5.46146 2.42714 5.18745 2.14191 5.03007C2.5576 4.08495 3.10454 3.40981 3.10454 3.40981C3.18193 3.30771 4.8387 1.33838 6.29601 2.03006C7.88776 2.75444 8.04972 6.0793 7.05199 8.53854ZM66.1849 8.53854C64.7455 6.95985 63.2272 6.00545 62.1062 5.46146C62.1062 5.46146 61.56 5.18745 61.2748 5.03007C61.6905 4.08495 62.2374 3.40981 62.2374 3.40981C62.3148 3.30771 63.9716 1.33838 65.4289 2.03006C67.0207 2.75444 67.1826 6.0793 66.1849 8.53854Z" fill="#002A8D"/>
<path fill-rule="evenodd" clip-rule="evenodd" d="M11.9906 11.0527C10.4387 13.56 6.20526 16.418 5.00566 16.8465C2.67269 17.834 1.09331 16.0027 0.958474 15.8106C0.523237 15.2436 0.41752 15.1238 0.206882 14.7101C0.165792 14.7787 4.68532 12.652 6.30459 9.90061C8.05831 7.53741 8.2111 2.90182 6.29582 2.03014C6.87507 2.32514 8.23982 3.11772 9.47133 4.22789C10.7 5.28156 11.762 6.66332 11.7393 6.64556C11.8689 6.82353 13.408 8.76138 11.9906 11.0527ZM70.8722 6.64556C71.0018 6.82353 72.5409 8.76138 71.1235 11.0527C69.5721 13.56 65.3382 16.418 64.1386 16.8465C61.8056 17.834 60.2262 16.0027 60.0914 15.8106C59.6561 15.2436 59.5504 15.1238 59.3398 14.7101C59.2987 14.7787 63.8186 12.652 65.4375 9.90061C67.1912 7.53741 67.344 2.90182 65.4287 2.03014C66.008 2.32514 67.3727 3.11772 68.6042 4.22789C69.833 5.28156 70.8953 6.66332 70.8722 6.64556Z" fill="#FF7800"/>
</svg>
